HIERARCHY
ROOT Hips
{
	OFFSET 0.0000 0.0000 0.0000
	CHANNELS 6 Xposition Yposition Zposition Zrotation Xrotation Yrotation
	JOINT Spine
	{
		OFFSET 0.0000 10.0000 0.0000
		CHANNELS 3 Zrotation Xrotation Yrotation
		JOINT Spine1
		{
			OFFSET 0.0000 14.0000 0.0000
			CHANNELS 3 Zrotation Xrotation Yrotation
			JOINT Neck
			{
				OFFSET 0.0000 17.0000 0.0000
				CHANNELS 3 Zrotation Xrotation Yrotation
				JOINT Head
				{
					OFFSET 0.0000 10.0000 0.0000
					CHANNELS 3 Zrotation Xrotation Yrotation
					End Site
					{
						OFFSET 0.0000 18.0000 0.0000
					}
				}
			}
			JOINT LeftShoulder
			{
				OFFSET 4.0000 13.0000 0.0000
				CHANNELS 3 Zrotation Xrotation Yrotation
				JOINT LeftArm
				{
					OFFSET 13.0000 0.0000 0.0000
					CHANNELS 3 Zrotation Xrotation Yrotation
					JOINT LeftForeArm
					{
						OFFSET 0.0000 -28.0000 0.0000
						CHANNELS 3 Zrotation Xrotation Yrotation
						JOINT LeftHand
						{
							OFFSET 0.0000 -24.0000 0.0000
							CHANNELS 3 Zrotation Xrotation Yrotation
							End Site
							{
								OFFSET 0.0000 -17.0000 0.0000
							}
						}
					}
				}
			}
			JOINT RightShoulder
			{
				OFFSET -4.0000 13.0000 0.0000
				CHANNELS 3 Zrotation Xrotation Yrotation
				JOINT RightArm
				{
					OFFSET -13.0000 0.0000 0.0000
					CHANNELS 3 Zrotation Xrotation Yrotation
					JOINT RightForeArm
					{
						OFFSET 0.0000 -28.0000 0.0000
						CHANNELS 3 Zrotation Xrotation Yrotation
						JOINT RightHand
						{
							OFFSET 0.0000 -24.0000 0.0000
							CHANNELS 3 Zrotation Xrotation Yrotation
							End Site
							{
								OFFSET 0.0000 -17.0000 0.0000
							}
						}
					}
				}
			}
		}
	}
	JOINT LeftUpLeg
	{
		OFFSET 9.0000 -4.0000 0.0000
		CHANNELS 3 Zrotation Xrotation Yrotation
		JOINT LeftLeg
		{
			OFFSET 0.0000 -42.0000 0.0000
			CHANNELS 3 Zrotation Xrotation Yrotation
			JOINT LeftFoot
			{
				OFFSET 0.0000 -40.0000 0.0000
				CHANNELS 3 Zrotation Xrotation Yrotation
				JOINT LeftToeBase
				{
					OFFSET 0.0000 -6.0000 13.0000
					CHANNELS 3 Zrotation Xrotation Yrotation
					End Site
					{
						OFFSET 0.0000 -2.0000 6.0000
					}
				}
			}
		}
	}
	JOINT RightUpLeg
	{
		OFFSET -9.0000 -4.0000 0.0000
		CHANNELS 3 Zrotation Xrotation Yrotation
		JOINT RightLeg
		{
			OFFSET 0.0000 -42.0000 0.0000
			CHANNELS 3 Zrotation Xrotation Yrotation
			JOINT RightFoot
			{
				OFFSET 0.0000 -40.0000 0.0000
				CHANNELS 3 Zrotation Xrotation Yrotation
				JOINT RightToeBase
				{
					OFFSET 0.0000 -6.0000 13.0000
					CHANNELS 3 Zrotation Xrotation Yrotation
					End Site
					{
						OFFSET 0.0000 -2.0000 6.0000
					}
				}
			}
		}
	}
}
MOTION
Frames: 9
Frame Time: 0.0333333
41.6874 85.5000 707.1659 -2.9489 10.9123 45.8655 -0.1542 2.7157 3.2500 -0.2393 2.2541 6.0612 0.4798 -3.9376 6.9530 0.8776 -4.7683 10.4413 3.0000 0.0000 -0.0000 6.0580 -7.9191 0.8377 -0.0000 -39.8683 -0.0000 -0.0000 -8.0000 -0.0000 -3.0000 0.0000 -0.0000 -6.0383 6.4458 0.6804 -0.0000 -39.8683 -0.0000 -0.0000 -8.0000 -0.0000 -14.0171 -28.0068 -2.0154 -0.0000 48.5499 -0.0000 8.3790 -26.8856 3.6549 -0.0000 -2.6333 -0.0000 -8.3329 -42.6063 -9.0820 -0.0000 78.4540 0.0000 -2.1021 -39.1048 -8.7550 -0.0000 7.9431 -0.0000
44.7456 85.3359 708.3483 -3.4920 10.5361 48.6835 -0.1414 2.6970 3.0023 -0.2199 2.2398 5.6095 0.4544 -3.8943 6.6614 0.8314 -4.7194 10.0031 3.0000 0.0000 -0.0000 6.0584 -10.0974 1.0660 -0.0000 -39.5926 -0.0000 -0.0000 -8.0000 -0.0000 -3.0000 0.0000 -0.0000 -6.0305 8.4837 0.8929 -0.0000 -39.5926 -0.0000 -0.0000 -8.0000 -0.0000 -15.1923 -26.6025 -3.6398 0.0000 50.3597 0.0000 9.4830 -26.1187 3.2399 -0.0000 -5.7740 -0.0000 2.3118 -53.8826 -0.8103 0.0000 74.3971 -0.0000 -9.6700 -29.6478 -6.7723 -0.0000 7.5289 -0.0000
47.9797 85.1778 709.5861 -4.0047 10.1417 51.4781 -0.1294 2.6792 2.7654 -0.2016 2.2262 5.1768 0.4294 -3.8531 6.3637 0.7858 -4.6730 9.5559 3.0000 0.0000 -0.0000 6.0631 -12.0221 1.2674 -0.0000 -39.3053 -0.0000 -0.0000 -8.0000 -0.0000 -3.0000 0.0000 -0.0000 -6.0268 10.2843 1.0798 -0.0000 -39.3053 -0.0000 -0.0000 -8.0000 -0.0000 -16.3236 -25.3033 -5.2180 0.0000 52.5666 0.0000 10.6696 -24.2098 3.0174 -0.0000 -10.1320 -0.0000 11.9580 -58.1759 9.3738 -0.0000 61.3080 0.0000 -10.1730 -16.4465 1.3561 -0.0000 6.8052 -0.0000
51.3854 85.0245 710.8507 -4.4791 9.7370 54.2129 -0.1183 2.6623 2.5449 -0.1848 2.2131 4.7733 0.4048 -3.8142 6.0620 0.7408 -4.6291 9.1027 3.0000 0.0000 -0.0000 6.0675 -13.6298 1.4349 -0.0000 -39.0044 -0.0000 -0.0000 -8.0000 -0.0000 -3.0000 0.0000 -0.0000 -6.0235 11.7883 1.2349 -0.0000 -39.0044 -0.0000 -0.0000 -8.0000 -0.0000 -17.4497 -24.0786 -6.7404 0.0000 54.9830 -0.0000 11.9379 -20.9949 3.0127 -0.0000 -15.7073 -0.0000 15.4127 -55.5334 16.5944 -0.0000 41.7587 -0.0000 -7.0299 -1.2364 9.0574 -0.0000 5.8812 -0.0000
54.9565 84.8750 712.1118 -4.9091 9.3312 56.8520 -0.1084 2.6462 2.3462 -0.1696 2.2005 4.4090 0.3806 -3.7774 5.7583 0.6969 -4.5877 8.6465 3.0000 0.0000 -0.0000 6.0670 -14.8569 1.5611 -0.0000 -38.6879 -0.0000 -0.0000 -8.0000 -0.0000 -3.0000 0.0000 -0.0000 -6.0167 12.9363 1.3517 -0.0000 -38.6879 -0.0000 -0.0000 -8.0000 -0.0000 -18.6109 -22.9021 -8.1954 0.0000 57.3935 0.0000 13.2411 -16.2770 3.2258 -0.0000 -22.5000 -0.0000 11.9473 -48.1138 18.8552 0.0000 19.5935 -0.0000 -2.9033 12.9683 13.1117 -0.0000 4.8662 -0.0000
58.6845 84.7283 713.3375 -5.2904 8.9343 59.3596 -0.0999 2.6307 2.1750 -0.1566 2.1882 4.0941 0.3572 -3.7429 5.4546 0.6540 -4.5487 8.1904 3.0000 0.0000 -0.0000 6.0568 -15.6401 1.6386 -0.0000 -38.3537 -0.0000 -0.0000 -8.0000 -0.0000 -3.0000 0.0000 -0.0000 -6.0024 13.6689 1.4233 -0.0000 -38.3537 -0.0000 -0.0000 -8.0000 -0.0000 -18.3150 -22.8926 -8.9627 0.0000 60.9601 -0.0000 13.7163 -23.1224 3.2440 -0.0000 -13.9207 -0.0000 9.2962 -45.1910 20.3323 -0.0000 15.7173 -0.0000 0.5165 13.2318 14.0539 -0.0000 3.8694 -0.0000
62.5583 84.5833 714.4947 -5.6249 8.5490 61.7012 -0.0930 2.6157 2.0367 -0.1460 2.1762 3.8385 0.3344 -3.7106 5.1531 0.6124 -4.5122 7.7375 3.0000 0.0000 -0.0000 6.0331 -15.9159 1.6601 -0.0000 -38.0000 -0.0000 -0.0000 -8.0000 -0.0000 -3.0000 0.0000 -0.0000 -5.9774 13.9269 1.4436 -0.0000 -38.0000 -0.0000 -0.0000 -8.0000 -0.0000 -16.2298 -27.7116 -8.8383 0.0000 67.7285 -0.0000 11.4116 -29.2115 1.8469 -0.0000 -4.3535 -0.0000 8.9121 -46.6239 20.7610 0.0000 24.6976 -0.0000 1.8278 5.0178 13.9067 -0.0000 3.0000 -0.0000
66.5647 84.4391 715.5494 -5.8990 8.1877 63.7227 -0.0893 2.6011 1.9669 -0.1402 2.1643 3.7060 0.3124 -3.6806 4.8556 0.5723 -4.4783 7.2907 3.0000 0.0000 -0.0000 5.9794 -15.1370 1.5667 -0.0000 -37.6251 -0.0000 -0.0000 -8.0000 -0.0000 -3.0000 0.0000 -0.0000 -5.9285 13.2035 1.3587 -0.0000 -37.6251 -0.0000 -0.0000 -8.0000 -0.0000 -12.6328 -35.6731 -7.8735 0.0000 74.5399 0.0000 6.5642 -32.6879 -1.0459 -0.0000 3.7318 -0.0000 8.9580 -48.9357 20.1132 0.0000 34.8938 0.0000 1.5928 -1.4693 13.1154 -0.0000 2.5312 -0.0000
70.6882 84.2944 716.4672 -6.1067 7.8643 65.3369 -0.0896 2.5867 1.9840 -0.1403 2.1523 3.7302 0.2914 -3.6528 4.5642 0.5339 -4.4468 6.8531 3.0000 0.0000 -0.0000 5.8943 -13.0212 1.3325 -0.0000 -37.2306 -0.0000 -0.0000 -8.0000 -0.0000 -3.0000 0.0000 -0.0000 -5.8548 11.2386 1.1449 -0.0000 -37.2306 -0.0000 -0.0000 -8.0000 -0.0000 -7.7093 -44.8416 -5.9123 -0.0000 78.3939 0.0000 0.4344 -31.9698 -4.0764 -0.0000 7.8650 -0.0000 8.2369 -49.3819 18.9955 0.0000 41.2190 0.0000 0.9541 -4.1508 12.3975 -0.0000 1.5000 -0.0000
